<mxfile host="app.diagrams.net" agent="Mozilla/5.0 (Windows NT 10.0; Win64; x64; rv:143.0) Gecko/20100101 Firefox/143.0" version="28.2.5">
  <diagram name="Страница — 1" id="UYSixShJ3WCaAFuJNWzh">
    <mxGraphModel dx="1295" dy="685" grid="1" gridSize="10" guides="1" tooltips="1" connect="1" arrows="1" fold="1" page="1" pageScale="1" pageWidth="827" pageHeight="1169" math="0" shadow="0">
      <root>
        <mxCell id="0" />
        <mxCell id="1" parent="0" />
        <mxCell id="Ks1hjhZ27-9bBiQJin12-5" value="&lt;div&gt;file.cpp&lt;/div&gt;" style="rounded=0;whiteSpace=wrap;html=1;fontSize=17;" vertex="1" parent="1">
          <mxGeometry y="220" width="120" height="60" as="geometry" />
        </mxCell>
        <mxCell id="Ks1hjhZ27-9bBiQJin12-9" value="file.c" style="rounded=0;whiteSpace=wrap;html=1;fontSize=17;" vertex="1" parent="1">
          <mxGeometry y="320" width="120" height="60" as="geometry" />
        </mxCell>
        <mxCell id="Ks1hjhZ27-9bBiQJin12-13" value="a.f&lt;br&gt;(Fortran)" style="rounded=0;whiteSpace=wrap;html=1;fontSize=17;" vertex="1" parent="1">
          <mxGeometry y="420" width="120" height="60" as="geometry" />
        </mxCell>
        <mxCell id="Ks1hjhZ27-9bBiQJin12-20" value="X86 code" style="rounded=0;whiteSpace=wrap;html=1;" vertex="1" parent="1">
          <mxGeometry x="707" y="220" width="120" height="60" as="geometry" />
        </mxCell>
        <mxCell id="Ks1hjhZ27-9bBiQJin12-21" value="ARM code" style="rounded=0;whiteSpace=wrap;html=1;" vertex="1" parent="1">
          <mxGeometry x="707" y="320" width="120" height="60" as="geometry" />
        </mxCell>
        <mxCell id="Ks1hjhZ27-9bBiQJin12-22" value="RISC-V code" style="rounded=0;whiteSpace=wrap;html=1;" vertex="1" parent="1">
          <mxGeometry x="707" y="420" width="120" height="60" as="geometry" />
        </mxCell>
        <mxCell id="Ks1hjhZ27-9bBiQJin12-35" value="&lt;font style=&quot;font-size: 36px;&quot;&gt;IR&lt;/font&gt;&lt;br&gt;Intermediate Representation" style="shape=cube;whiteSpace=wrap;html=1;boundedLbl=1;backgroundOutline=1;darkOpacity=0.05;darkOpacity2=0.1;" vertex="1" parent="1">
          <mxGeometry x="248" y="240" width="330" height="220" as="geometry" />
        </mxCell>
        <mxCell id="Ks1hjhZ27-9bBiQJin12-36" style="rounded=0;orthogonalLoop=1;jettySize=auto;html=1;exitX=1;exitY=0.5;exitDx=0;exitDy=0;entryX=0.005;entryY=0.176;entryDx=0;entryDy=0;entryPerimeter=0;" edge="1" parent="1" source="Ks1hjhZ27-9bBiQJin12-5" target="Ks1hjhZ27-9bBiQJin12-35">
          <mxGeometry relative="1" as="geometry" />
        </mxCell>
        <mxCell id="Ks1hjhZ27-9bBiQJin12-37" style="rounded=0;orthogonalLoop=1;jettySize=auto;html=1;exitX=1;exitY=0.5;exitDx=0;exitDy=0;entryX=0.003;entryY=0.5;entryDx=0;entryDy=0;entryPerimeter=0;" edge="1" parent="1" source="Ks1hjhZ27-9bBiQJin12-9" target="Ks1hjhZ27-9bBiQJin12-35">
          <mxGeometry relative="1" as="geometry" />
        </mxCell>
        <mxCell id="Ks1hjhZ27-9bBiQJin12-38" style="rounded=0;orthogonalLoop=1;jettySize=auto;html=1;exitX=1;exitY=0.5;exitDx=0;exitDy=0;entryX=0.009;entryY=0.806;entryDx=0;entryDy=0;entryPerimeter=0;" edge="1" parent="1" source="Ks1hjhZ27-9bBiQJin12-13" target="Ks1hjhZ27-9bBiQJin12-35">
          <mxGeometry relative="1" as="geometry" />
        </mxCell>
        <mxCell id="Ks1hjhZ27-9bBiQJin12-39" value="" style="endArrow=classic;html=1;rounded=0;exitX=1.001;exitY=0.309;exitDx=0;exitDy=0;exitPerimeter=0;entryX=0;entryY=0.5;entryDx=0;entryDy=0;" edge="1" parent="1" source="Ks1hjhZ27-9bBiQJin12-35" target="Ks1hjhZ27-9bBiQJin12-20">
          <mxGeometry width="50" height="50" relative="1" as="geometry">
            <mxPoint x="340" y="440" as="sourcePoint" />
            <mxPoint x="390" y="390" as="targetPoint" />
          </mxGeometry>
        </mxCell>
        <mxCell id="Ks1hjhZ27-9bBiQJin12-40" value="" style="endArrow=classic;html=1;rounded=0;exitX=0;exitY=0;exitDx=330;exitDy=120;exitPerimeter=0;entryX=0;entryY=0.5;entryDx=0;entryDy=0;" edge="1" parent="1" source="Ks1hjhZ27-9bBiQJin12-35" target="Ks1hjhZ27-9bBiQJin12-21">
          <mxGeometry width="50" height="50" relative="1" as="geometry">
            <mxPoint x="590" y="388" as="sourcePoint" />
            <mxPoint x="719" y="330" as="targetPoint" />
          </mxGeometry>
        </mxCell>
        <mxCell id="Ks1hjhZ27-9bBiQJin12-41" value="" style="endArrow=classic;html=1;rounded=0;exitX=1.001;exitY=0.779;exitDx=0;exitDy=0;exitPerimeter=0;entryX=0;entryY=0.5;entryDx=0;entryDy=0;" edge="1" parent="1" source="Ks1hjhZ27-9bBiQJin12-35" target="Ks1hjhZ27-9bBiQJin12-22">
          <mxGeometry width="50" height="50" relative="1" as="geometry">
            <mxPoint x="578" y="410" as="sourcePoint" />
            <mxPoint x="707" y="400" as="targetPoint" />
          </mxGeometry>
        </mxCell>
      </root>
    </mxGraphModel>
  </diagram>
</mxfile>
